PathFileType	4	(X/Y/Z)	C:/Users/beibeiliu/ov580/test_trc/User1\sequence.5_training_dense_left.trc
DataRate	CameraRate	NumFrames	NumMarkers	Units	OrigDataRate	OrigDataStartFrame	OrigNumFrames
120	120	24	19	mm	120	202	269
Frame#	Time	ThumbCMC			ThumbMCP			ThumbIP			ThumbTip			IndexMCP			IndexPIP			IndexTip			MiddleMCP			MiddlePIP			MiddleTip			RingMCP			RingPIP			RingTip			PinkyMCP			PinkyPIP			PinkyTip			BackHand1			BackHand2			BackHand3	
		X0	Y0	Z0	X1	Y1	Z1	X2	Y2	Z2	X3	Y3	Z3	X4	Y4	Z4	X5	Y5	Z5	X6	Y6	Z6	X7	Y7	Z7	X8	Y8	Z8	X9	Y9	Z9	X10	Y10	Z10	X11	Y11	Z11	X12	Y12	Z12	X13	Y13	Z13	X14	Y14	Z14	X15	Y15	Z15	X16	Y16	Z16	X17	Y17	Z17	X18	Y18	Z18	
201	1.675	-184.536	117.16	-9.66323	-149.302	117.421	-28.2675	-134.19	100.159	-47.1382	-123.32	72.691	-54.8878	-195.062	83.0793	-84.3291	-189.612	75.6391	-112.195	-183.767	67.7551	-131.771	-176.44	59.8286	-83.7189	-139.576	63.3134	-78.5106	-141.397	75.7299	-43.267	-165.347	38.4027	-65.9353	-133.545	47.3479	-53.8718	-138.448	63.8551	-23.8507	-169.222	24.4559	-47.9965	-139.498	36.3984	-43.7945	-142.592	56.5416	-20.5088	-212.767	50.3611	-24.3269	-222.542	61.3109	12.6969	-220.383	89.4967	-12.8254	
202	1.68333	-191.284	119.991	-6.75177	-160.384	116.762	-32.7489	-141.734	105.141	-51.3012	-124.456	82.9141	-60.7688	-200.67	87.194	-84.0351	-196.135	79.3078	-112.604	-188.642	66.7501	-132.49	-179.814	63.0306	-83.3056	-141.67	70.414	-82.2302	-142.643	78.833	-45.4664	-167.455	46.4464	-67.9301	-136.419	55.209	-61.53	-137.659	70.6549	-30.9034	-165.952	29.4393	-49.9665	-141.637	40.2405	-48.8694	-141.869	63.7191	-23.711	-212.18	52.6286	-24.7517	-224.054	60.5871	9.87423	-221.004	87.5297	-17.3084	
203	1.69167	-195.389	121.53	-11.0143	-163.404	123.433	-35.7221	-145.698	113.342	-56.6072	-132.494	92.8084	-66.0657	-204.922	85.4955	-84.8658	-201.856	81.7121	-109.855	-194.767	67.6932	-133.369	-181.503	64.7098	-82.9511	-145.319	73.3472	-83.5584	-144.634	86.8877	-47.7529	-169.568	44.6278	-67.0032	-137.093	60.1141	-60.6548	-139	73.2573	-29.6435	-171.367	31.2228	-48.4924	-143.028	45.1497	-50.0287	-144.326	66.7628	-29.7069	-213.49	50.1423	-24.5632	-224.53	56.2038	12.1245	-223.958	91.0379	-17.4546	
204	1.7	-199.328	118.902	-10.6621	-170.498	125.17	-36.7662	-155.108	115.987	-55.3267	-138.174	96.3909	-73.7047	-210.091	88.8481	-90.1717	-206.511	76.4154	-112.241	-201.665	66.4088	-137.226	-183.439	63.577	-84.2315	-148.977	71.171	-85.2904	-145.378	83.3097	-47.0152	-174.753	48.193	-70.7812	-140.864	59.6663	-64.5812	-139.295	72.1225	-37.4429	-175.078	31.2242	-51.0309	-146.829	43.9629	-53.7546	-143.654	66.9321	-31.1135	-218.168	54.9206	-25.0406	-226.605	61.3561	9.07389	-228.247	90.0914	-16.1737	
205	1.70833	-201.141	122.358	-12.781	-174.122	125.675	-35.3986	-159.832	113.885	-62.2086	-142.644	100.108	-77.6976	-213.807	86.969	-85.673	-212.557	79.3124	-113.919	-208.52	64.6422	-135.447	-187.413	65.966	-86.566	-151.144	69.2891	-85.2684	-147.499	84.5863	-47.568	-175.594	43.622	-73.3326	-143.422	55.8651	-67.1666	-141.609	73.7568	-42.7191	-176.059	31.5928	-56.4921	-150.288	42.6608	-55.9992	-147.834	68.2107	-38.2004	-222.658	53.6934	-26.0476	-227.764	56.2961	10.0657	-229.998	87.894	-16.2227	
206	1.71667	-202.829	118.289	-13.6824	-176.58	122.105	-37.4402	-163.162	111.722	-61.5577	-145.858	96.296	-81.6103	-216.232	81.9383	-86.3319	-215.428	75.0592	-115.368	-212.414	63.0505	-136.802	-188.182	64.2377	-87.6624	-153.233	67.1863	-84.781	-149.187	84.6677	-51.2257	-180.597	42.0569	-72.1696	-147.123	55.0476	-70.1653	-145.568	70.3	-38.8251	-180.848	28.9801	-52.5736	-153.212	42.3302	-56.9053	-152.959	69.418	-35.86	-224.358	52.576	-26.6705	-230.623	55.5586	11.431	-230.925	88.7066	-19.3729	
207	1.725	-205.638	115.848	-11.582	-178.456	121.18	-37.6343	-165.332	112.022	-64.2495	-147.845	98.2926	-80.9936	-219.416	80.9646	-88.8767	-217.996	73.7637	-112.959	-214.077	60.4052	-134.862	-190.14	60.112	-87.8068	-156.396	66.0089	-87.3078	-151.293	81.8724	-49.9693	-182.229	44.4957	-74.7192	-149.817	50.1419	-69.1675	-148.296	69.3354	-42.7331	-179.313	24.2537	-53.7336	-152.582	38.4413	-56.5258	-154.084	63.2125	-32.6926	-225.036	50.4968	-25.2908	-233.098	54.1992	7.82224	-233.167	85.5688	-15.1455	
208	1.73333	-207.328	114.096	-10.5406	-182.973	116.253	-38.9407	-167.261	111.146	-64.9152	-150.294	92.187	-82.4133	-221.525	76.0864	-87.9799	-221.91	70.8016	-114.864	-217.112	56.4297	-135.061	-195.077	56.2179	-86.896	-159.638	64.8505	-87.7014	-155.668	79.5452	-48.688	-184.91	36.6619	-72.7047	-152.189	53.5936	-69.5841	-152.152	68.5504	-39.8462	-183.394	25.3216	-56.3349	-156.223	39.6894	-55.824	-156.26	60.6179	-37.3731	-226.51	47.5318	-23.1725	-233.441	51.2456	10.0165	-235.035	80.7034	-16.042	
209	1.74167	-210.221	111.252	-11.6972	-185.415	116.865	-37.3309	-171.03	106.778	-67.0787	-155.591	91.0629	-81.0337	-224.82	75.7829	-85.6942	-223.343	64.8927	-112.635	-219.76	49.8142	-135.782	-197.378	51.8168	-86.9348	-160.897	61.6614	-87.451	-158.063	81.3864	-53.0655	-189.066	37.4287	-74.017	-155.741	49.8152	-72.9825	-155.013	67.7042	-41.204	-184.366	20.339	-54.4678	-157.37	34.2856	-56.2953	-161.382	60.207	-34.3517	-229.551	43.0515	-24.0331	-235.785	51.3313	5.39538	-239.183	78.1395	-14.9302	
210	1.75	-214.098	108.551	-15.2641	-187.663	113.375	-39.1514	-174.743	103.584	-64.7915	-157.397	87.8414	-83.2735	-229.773	74.0883	-90.3514	-228.631	63.5792	-115.592	-224.146	47.486	-133.734	-199.598	50.9275	-88.9642	-167.997	59.3502	-90.9398	-162.128	76.3549	-51.1105	-189.835	32.534	-73.4707	-160.772	46.7296	-73.8395	-157.707	64.209	-44.2929	-188.567	15.9941	-54.065	-160.91	32.4958	-57.581	-164.299	58.5287	-37.8249	-233.872	42.7252	-22.2626	-236.444	47.8583	12.1848	-240.791	77.1754	-18.8693	
211	1.75833	-215.333	104.511	-13.8755	-190.848	108.111	-42.87	-175.727	101.36	-68.0923	-161.089	85.6596	-80.7403	-233.478	70.5094	-90.8748	-231.762	58.3098	-111.823	-229.245	41.6219	-135.888	-204.459	45.7617	-87.5636	-171.288	54.3959	-91.5746	-164.222	71.5446	-52.6175	-191.175	28.709	-75.5551	-160.66	43.4365	-71.9191	-161.616	61.3418	-41.9381	-190.098	14.5449	-56.8674	-166.426	28.6369	-58.8564	-166.349	54.9484	-39.8714	-235.33	36.1548	-24.1473	-238.956	43.9843	8.69752	-245.34	77.1933	-18.6452	
212	1.76667	-217.582	106.719	-16.3593	-191.42	111.443	-42.0061	-178.833	97.6327	-68.7463	-163.786	80.3068	-81.3702	-235.459	66.0783	-89.5384	-235.922	55.7706	-111.477	-233.65	40.9951	-134.719	-209.864	46.7511	-87.4616	-173.251	48.2466	-89.8207	-166.333	69.4471	-56.7639	-197.424	26.516	-74.0386	-164.44	40.9183	-71.3384	-162.803	56.2802	-45.6529	-197.033	12.6855	-52.543	-169.089	25.0269	-58.9947	-166.769	48.0405	-37.636	-236.51	34.019	-21.3479	-242.224	42.5887	12.4311	-243.84	69.8606	-17.5987	
213	1.775	-219.898	99.8712	-13.0467	-193.182	108.104	-43.501	-183.13	93.1227	-68.0916	-166.578	73.9751	-86.2157	-238.67	60.2229	-89.8787	-239.284	52.238	-111.616	-236.451	35.3269	-129.999	-209.113	40.1885	-89.8896	-178.141	45.7303	-92.8162	-168.229	62.0452	-57.5449	-200.445	22.0243	-72.7021	-167.65	36.0181	-72.5429	-165.456	54.7709	-47.2671	-197.969	10.1804	-53.7456	-172.597	24.3788	-59.1319	-169.684	49.2365	-36.9842	-238.838	30.9903	-21.1892	-242.228	40.5436	12.1308	-246.82	71.84	-15.139	
214	1.78333	-222.27	99.0975	-14.8573	-197.78	101.705	-46.4875	-185.991	88.8707	-70.0505	-171.417	72.6197	-83.0431	-242.956	58.9935	-89.2651	-241.866	46.8738	-109.947	-241.156	33.4094	-134.282	-216.699	38.1132	-87.2477	-180.402	47.5075	-92.5944	-173.357	64.3875	-58.6229	-204.168	18.5178	-71.666	-172.365	29.4447	-73.357	-170.131	50.1059	-44.2427	-201.734	6.32681	-53.0705	-174.172	20.7865	-57.8336	-172.483	46.1288	-35.574	-243.789	30.8347	-22.829	-245.064	41.4556	11.6753	-251.464	66.9905	-15.3958	
215	1.79167	-223.262	94.9741	-17.3736	-200.057	98.6201	-46.5941	-188.602	85.6872	-71.0525	-175.242	69.3109	-84.2351	-245.452	56.9192	-84.1693	-246.762	44.8679	-107.735	-245.829	30.8746	-129.6	-218.621	32.9371	-87.8493	-187.585	40.5549	-93.0535	-178.424	60.8648	-56.2723	-207.75	17.4252	-75.5517	-177.014	24.8932	-72.2492	-173.813	47.2425	-47.6411	-205.081	1.9003	-53.4866	-180.749	15.7857	-59.5874	-177.674	43.2494	-37.5534	-245.232	28.6322	-20.4194	-250.056	42.7064	13.7458	-254.383	66.5506	-17.8073	
216	1.8	-223.867	94.9807	-13.1389	-200.95	92.8955	-48.1139	-190.947	82.6919	-70.7542	-181.171	61.3046	-87.0401	-252.735	58.5762	-84.9655	-255.27	45.1639	-110.846	-256.577	33.4678	-130.155	-229.451	36.5229	-86.9908	-192.098	39.2503	-92.0118	-186.234	53.0111	-54.6572	-220.422	16.2009	-71.543	-185.717	22.2043	-71.8435	-182.328	43.4855	-45.3095	-217.115	2.5884	-54.6464	-190.648	11.8355	-59.6095	-187.29	38.9454	-37.8916	-254.349	33.3699	-20.9428	-253.53	40.1277	13.0628	-256.446	67.9884	-15.2677	
217	1.80833	-220.506	95.2245	-17.1541	-198.768	86.3765	-47.0612	-191.514	74.5011	-68.0897	-187.705	52.8107	-85.5717	-259.267	68.1807	-85.3721	-264.205	57.7237	-105.763	-268.061	47.2527	-131.301	-238.077	37.7888	-89.8719	-204.845	35.3252	-91.6604	-194.878	47.5675	-54.6877	-232.469	17.8085	-74.0912	-200.946	16.1786	-71.2066	-194.549	38.0287	-42.3824	-235.864	4.37739	-52.8962	-205.718	5.25519	-58.0467	-200.908	30.7398	-33.6636	-265.645	40.638	-20.6382	-261.283	47.3685	14.9578	-259.498	74.6203	-13.5631	
218	1.81667	-212.743	90.9691	-15.2465	-192.001	79.6669	-43.1705	-190.222	65.9307	-69.4107	-189.64	42.9692	-87.0197	-255.928	77.5568	-82.8745	-263.331	69.5695	-105.485	-270.184	61.3605	-131.47	-245.193	42.6247	-89.2301	-214.273	30.9231	-90.2832	-203.17	43.2944	-52.3257	-245.715	22.6873	-72.9292	-210.572	16.4179	-71.2431	-204.599	28.218	-42.6285	-252.173	8.2672	-53.6894	-220.721	8.56462	-59.5588	-210.671	26.661	-33.3624	-269.835	50.8608	-20.2565	-267.204	54.9644	13.9315	-256.312	83.2627	-10.0794	
219	1.825	-205.007	85.4666	-11.7081	-184.667	72.8838	-41.6982	-187.499	58.9365	-71.358	-191.223	37.6644	-84.2567	-247.447	86.5562	-81.8725	-257.06	80.3324	-105.626	-264.659	74.1239	-134.778	-244.295	51.2349	-87.4208	-217.624	29.3422	-89.1593	-207.705	37.9178	-50.8291	-247.87	28.1529	-77.449	-220.117	16.6815	-73.6804	-211.733	26.0483	-39.7799	-258.683	20.0127	-58.7331	-232.954	6.18623	-62.2112	-219.72	22.3415	-37.0172	-268.783	58.7548	-22.1244	-265.959	65.1572	12.5065	-248.669	87.0651	-12.5117	
220	1.83333	-197.246	80.465	-7.7806	-180.675	65.0576	-38.6916	-180.696	52.8725	-66.2761	-194.497	33.1305	-84.0877	-237.978	89.6672	-80.8167	-245.821	88.2665	-107.87	-253	85.3995	-130.349	-238.825	58.2918	-86.6062	-214.365	31.5367	-88.406	-206.92	38.6317	-47.897	-249.955	34.2736	-79.0806	-226.75	14.26	-72.0093	-217.612	22.7703	-41.2788	-264.213	23.548	-63.7918	-239.643	10.2199	-64.7826	-226.419	23.4534	-35.344	-268.49	64.335	-23.5259	-261.276	69.5787	9.99205	-239.369	91.2176	-11.8944	
221	1.84167	-191.455	74.631	-4.64443	-177.176	56.6508	-37.713	-180.782	45.2056	-66.2546	-193.7	27.3612	-84.5104	-229.181	90.7972	-78.1213	-235.568	91.3012	-103.366	-243.147	89.6214	-130.113	-233.524	60.0765	-87.6582	-215.877	28.2506	-84.9363	-209.353	35.4596	-44.7017	-247.73	41.9235	-78.5943	-228.171	15.7253	-71.8552	-222.064	21.7885	-37.8159	-263.372	33.4452	-64.9555	-243.596	13.0875	-65.1824	-231.434	19.7042	-33.8329	-262.27	71.4583	-24.3474	-262.203	72.5377	16.0921	-231.345	92.6658	-10.716	
222	1.85	-190.173	68.4768	-2.80615	-176.651	49.894	-36.0506	-180.415	40.5252	-64.8995	-196.986	24.3405	-84.4381	-218.971	92.9103	-75.2598	-223.903	94.1818	-100.717	-231.374	94.6253	-125.957	-230.514	62.4697	-84.3412	-213.628	28.5097	-83.4127	-210.56	33.5109	-43.2889	-245.413	45.0198	-79.3468	-230.538	16.6517	-72.9425	-225.469	19.5272	-39.0973	-265.722	40.5152	-60.824	-245.851	14.8828	-64.5057	-234.441	19.8167	-33.2906	-260.655	74.9116	-22.9709	-256.351	74.9998	14.1935	-228.592	89.0345	-4.92282	
223	1.85833	-185.813	64.2112	-0.819004	-175.171	43.3179	-29.1025	-182.013	36.8788	-57.8731	-193.84	22.4901	-82.1896	-211.85	93.0636	-74.7391	-218.645	94.8997	-98.9928	-225.907	97.5542	-125.23	-228.813	61.309	-84.2465	-213.942	29.866	-85.1455	-208.074	31.6389	-42.9576	-243.574	50.693	-77.9431	-230.551	18.8995	-71.4765	-224.938	21.0532	-41.3894	-262.218	45.4764	-65.8998	-245.9	22.4395	-66.7279	-235.474	21.1414	-35.3373	-252.981	81.7014	-21.4086	-257.181	79.125	13.2075	-222.988	87.9549	-4.48559	
224	1.86667	-185.287	58.6009	0.752231	-177.685	41.1133	-31.1451	-177.157	31.0668	-58.428	-193.294	21.396	-81.2779	-203.744	93.2506	-73.2506	-209.776	97.1037	-99.0741	-214.068	100.617	-124.369	-223.406	62.8438	-84.5913	-215.652	28.288	-82.1805	-207.392	30.1785	-43.1872	-243.146	55.7135	-74.7416	-233.508	20.3961	-72.1024	-225.766	22.5197	-40.775	-263.64	51.7027	-65.4505	-249.902	24.8536	-68.9327	-235.392	23.2913	-36.1174	-250.693	83.4287	-18.2007	-250.61	82.2148	17.3514	-213.872	89.388	-3.46971	
